<svg xmlns="http://www.w3.org/2000/svg" width="580" height="310" viewBox="0 0 580 310" role="img" aria-label="LeetCode Challenge Arena: 471 solved">
<defs><linearGradient id="bg" x2="1"><stop stop-color="#050A14"/><stop offset="1" stop-color="#102A3C"/></linearGradient><linearGradient id="ring"><stop stop-color="#F7C948"/><stop offset="1" stop-color="#FF8C42"/></linearGradient><filter id="g"><feGaussianBlur stdDeviation="5" result="b"/><feMerge><feMergeNode in="b"/><feMergeNode in="SourceGraphic"/></feMerge></filter></defs>
<path d="M1 1h520l58 58v250H1z" fill="url(#bg)" stroke="#F7C948" stroke-opacity=".55" stroke-width="2"/><g font-family="Consolas,monospace"><text x="34" y="43" fill="#F7C948" font-size="12" letter-spacing="3">CHALLENGE ARENA // ALGORITHM RAID</text><text x="34" y="82" fill="#fff" font-size="27" font-weight="900">LEETCODE</text><text x="34" y="106" fill="#73849A" font-size="11">ISHAAN_CHANDAK // GLOBAL RANK #232,571</text>
<circle cx="151" cy="199" r="67" fill="none" stroke="#1A3342" stroke-width="13"/><circle cx="151" cy="199" r="67" fill="none" stroke="url(#ring)" stroke-width="13" stroke-linecap="round" stroke-dasharray="360 61" transform="rotate(-90 151 199)" filter="url(#g)"/><text x="151" y="196" text-anchor="middle" fill="#fff" font-size="31" font-weight="900">471</text><text x="151" y="218" text-anchor="middle" fill="#73849A" font-size="10">SOLVED</text>
<g transform="translate(270 139)"><text y="0" fill="#69F0CF" font-size="12">EASY</text><text x="240" y="0" text-anchor="end" fill="#fff" font-size="14">131</text><rect y="12" width="240" height="7" rx="4" fill="#172B3B"/><rect y="12" width="116" height="7" rx="4" fill="#69F0CF"/><text y="50" fill="#F7C948" font-size="12">MEDIUM</text><text x="240" y="50" text-anchor="end" fill="#fff" font-size="14">272</text><rect y="62" width="240" height="7" rx="4" fill="#172B3B"/><rect y="62" width="200" height="7" rx="4" fill="#F7C948"/><text y="100" fill="#FF6B6B" font-size="12">HARD</text><text x="240" y="100" text-anchor="end" fill="#fff" font-size="14">68</text><rect y="112" width="240" height="7" rx="4" fill="#172B3B"/><rect y="112" width="76" height="7" rx="4" fill="#FF6B6B"/></g><text x="34" y="288" fill="#73849A" font-size="10">PROFILE SYNC // AUG 2026</text><text x="544" y="288" text-anchor="end" fill="#F7C948" font-size="10">ENTER ARENA ↗</text></g>
</svg>
